<?xml version="1.0" encoding="UTF-8"?>
<svg version="1.1" xmlns="http://www.w3.org/2000/svg" width="256" height="256">
<path d="M0 0 C1.50923158 -0.00571461 3.01845886 -0.01268305 4.52767944 -0.02079773 C8.59594908 -0.03862338 12.66400178 -0.03758097 16.73229861 -0.03185534 C20.14160535 -0.02874825 23.55087133 -0.03487271 26.96017224 -0.04089409 C35.00912771 -0.05490275 43.05797696 -0.05340846 51.10693359 -0.04199219 C59.38278106 -0.03051278 67.65830438 -0.04459195 75.93410915 -0.07138866 C83.06654197 -0.09360988 90.19887352 -0.10016868 97.33133847 -0.09431225 C101.57937934 -0.090957 105.82721249 -0.09326179 110.07522392 -0.11056328 C114.07192967 -0.12613345 118.06815845 -0.12196663 122.06484604 -0.10325813 C123.52240349 -0.0996 124.97999709 -0.10259867 126.43752098 -0.11314392 C142.53181867 -0.22060102 155.23211213 4.48190085 167.71313477 14.40405273 C168.70313477 15.12592773 169.69313477 15.84780273 170.71313477 16.59155273 C180.96800402 25.30958872 188.85932135 40.32435865 189.99696159 53.75477028 C190.10902189 57.6918635 190.13075362 61.62342133 190.1171875 65.56152344 C190.12290054 67.06898501 190.12986839 68.57644227 190.13798523 70.08389282 C190.15583129 74.15228871 190.15476417 78.2204679 190.14904284 82.28889108 C190.14593773 85.6980534 190.15205827 89.10717489 190.15808159 92.51633137 C190.17209792 100.56674941 190.17059044 108.61706126 190.15917969 116.66748047 C190.14770866 124.94271927 190.16176359 133.21763358 190.18857616 141.49282962 C190.21080891 148.62440866 190.21735334 155.75588641 190.21149975 162.8874976 C190.20814613 167.13502635 190.21043781 171.38234732 190.22775078 175.62984657 C190.24333866 179.62818349 190.23913493 183.62604404 190.22044563 187.62436295 C190.21679184 189.08149952 190.21977309 190.53867232 190.23033142 191.99577522 C190.35944259 211.30650869 183.83509774 226.49718706 170.71313477 240.40405273 C160.81687386 249.40231959 146.869779 256.50029795 133.39050293 256.55122375 C132.08973816 256.55837906 130.78897339 256.56553436 129.4487915 256.57290649 C128.00891137 256.57574664 126.56903098 256.57845839 125.12915039 256.58105469 C123.61110276 256.58732211 122.09305665 256.59396916 120.57501221 256.60096741 C115.58981387 256.62198518 110.60461533 256.63237082 105.61938477 256.64233398 C103.89975468 256.64638304 102.18012476 256.65050001 100.460495 256.65468407 C92.37669626 256.67373436 84.29290662 256.68796314 76.20908976 256.69629604 C66.89753889 256.70605428 57.58622663 256.73233742 48.27475977 256.77279693 C41.06605667 256.8030372 33.85742163 256.81777257 26.64865637 256.82107705 C22.34906258 256.82341942 18.04972373 256.83227257 13.75019836 256.85753822 C9.69863518 256.88096151 5.64749217 256.88499554 1.5958786 256.87477684 C0.11734869 256.87428474 -1.36120291 256.88050803 -2.83966827 256.89433289 C-21.05888329 257.055018 -36.00009204 250.87409774 -49.28686523 238.40405273 C-62.24909744 224.747815 -66.75382969 209.54469994 -66.69091797 191.13891602 C-66.69663084 189.61997987 -66.70359862 188.10104801 -66.7117157 186.5821228 C-66.72956216 182.48280379 -66.72849475 178.38369983 -66.72277331 174.28435373 C-66.71966874 170.85024397 -66.72578802 167.41617477 -66.73181206 163.9820708 C-66.74582805 155.87416154 -66.74432075 147.7663577 -66.73291016 139.65844727 C-66.72143471 131.32070546 -66.73550158 122.98328554 -66.76230663 114.64558613 C-66.78452774 107.46221864 -66.79108654 100.27895171 -66.78523022 93.09555233 C-66.78187437 88.816198 -66.78418355 84.53704987 -66.80148125 80.25772476 C-66.81705079 76.23066479 -66.81288525 72.20407823 -66.7941761 68.17703629 C-66.79051755 66.70819178 -66.79351788 65.2393114 -66.80406189 63.77050018 C-66.86514272 54.55023143 -65.81662372 46.94330928 -62.28686523 38.40405273 C-61.92955543 37.52921297 -61.57224562 36.65437321 -61.20410824 35.75302315 C-54.66048168 20.48186686 -41.24140627 9.78113363 -26.28686523 3.40405273 C-17.58120683 0.22942923 -9.179857 -0.03167132 0 0 Z " fill="#1876F2" transform="translate(66.286865234375,-0.404052734375)"/>
<path d="M0 0 C1.03898437 -0.00773437 2.07796875 -0.01546875 3.1484375 -0.0234375 C11.37290154 -0.0031802 18.55781185 1.06183026 26.875 2.25 C26.875 12.81 26.875 23.37 26.875 34.25 C15.875 34.5 15.875 34.5 12.45703125 34.54785156 C6.20604803 34.75724628 1.02022876 35.47950578 -4.125 39.25 C-8.32458885 44.5264065 -9.24565528 48.47790009 -9.44140625 55.10546875 C-9.47951416 56.31614014 -9.51762207 57.52681152 -9.55688477 58.77416992 C-9.59998779 60.31306885 -9.64309082 61.85196777 -9.6875 63.4375 C-9.831875 68.325625 -9.97625 73.21375 -10.125 78.25 C1.425 78.25 12.975 78.25 24.875 78.25 C23.75 90.625 23.75 90.625 22.90234375 96.01171875 C22.66245728 97.55412231 22.66245728 97.55412231 22.41772461 99.12768555 C22.11813843 101.0135437 22.11813843 101.0135437 21.8125 102.9375 C20.8534375 109.0321875 20.8534375 109.0321875 19.875 115.25 C9.975 115.25 0.075 115.25 -10.125 115.25 C-10.125 145.28 -10.125 175.31 -10.125 206.25 C-23.325 206.25 -36.525 206.25 -50.125 206.25 C-50.125 176.22 -50.125 146.19 -50.125 115.25 C-61.015 115.25 -71.905 115.25 -83.125 115.25 C-83.125 103.04 -83.125 90.83 -83.125 78.25 C-72.235 78.25 -61.345 78.25 -50.125 78.25 C-50.17140625 75.58550781 -50.2178125 72.92101562 -50.265625 70.17578125 C-50.29695676 67.5510447 -50.32116659 64.92633019 -50.34472656 62.30151367 C-50.36465268 60.49868205 -50.39180384 58.69591342 -50.42675781 56.89331055 C-50.75165992 39.68783265 -48.57262703 25.2498334 -36.5 12 C-26.16275629 2.21724446 -13.66786822 -0.09952331 0 0 Z " fill="#FDFEFE" transform="translate(158.125,49.75)"/>
</svg>
